<svg xmlns="http://www.w3.org/2000/svg" viewBox="0 0 30.14 17.58">
  <path
    d="M25,10.08c-.49-.62-.35-.89,0-1.44,0,0,4-5.57,4.44-7.45h0c.21-.69,0-1.19-1-1.19h-3.3a1.41,1.41,0,0,0-1.43.92,27,27,0,0,1-4.05,6.62c-.77.75-1.12,1-1.54,1-.21,0-.53-.24-.53-.93V1.19c0-.82-.23-1.19-.93-1.19H11.51a.79.79,0,0,0-.84.74c0,.78,1.19,1,1.31,3.16V8.67c0,1-.19,1.24-.61,1.24-1.12,0-3.84-4-5.45-8.65C5.59.36,5.27,0,4.43,0H1.13C.19,0,0,.43,0,.92,0,1.78,1.12,6,5.21,11.66c2.73,3.84,6.56,5.92,10.06,5.92,2.1,0,2.35-.46,2.35-1.26,0-3.67-.19-4,.86-4,.49,0,1.33.24,3.29,2.09,2.24,2.2,2.61,3.18,3.86,3.18h3.3c.94,0,1.42-.46,1.14-1.37C29.44,14.29,25.2,10.35,25,10.08Z"/>
</svg>