<svg xmlns="http://www.w3.org/2000/svg" viewBox="0 0 18.39 29.43">
  <path
    d="M.27,15.79c-.75,1.48.1,2.18,2,3.39a13.5,13.5,0,0,0,5.41,1.55L6.5,21.91c-1.74,1.66-3.4,3.27-4.56,4.38C.26,27.91,3,30.5,4.65,28.92l4.56-4.4c1.74,1.68,3.42,3.29,4.56,4.4,1.68,1.59,4.4-1,2.73-2.62l-4.56-4.38-1.25-1.18a13.54,13.54,0,0,0,5.38-1.55h0c1.95-1.21,2.8-1.92,2.06-3.39-.45-.84-1.65-1.54-3.26-.33A9.93,9.93,0,0,1,9.2,17.13a9.93,9.93,0,0,1-5.67-1.66C1.92,14.25.71,15,.27,15.79Z"/>
  <path
    d="M9.19,14.89a7.61,7.61,0,0,0,7.75-7.43A7.61,7.61,0,0,0,9.19,0,7.61,7.61,0,0,0,1.45,7.45,7.61,7.61,0,0,0,9.19,14.89Zm0-11.11A3.74,3.74,0,0,1,13,7.45a3.74,3.74,0,0,1-3.8,3.66,3.74,3.74,0,0,1-3.8-3.66,3.74,3.74,0,0,1,3.8-3.68Z"/>
</svg>